<svg id="Layer_1" data-name="Layer 1" xmlns="http://www.w3.org/2000/svg" xmlns:xlink="http://www.w3.org/1999/xlink" viewBox="0 0 3114.7 577.6"><defs><style>.cls-1{fill:url(#radial-gradient);}.cls-2{fill:#77c1eb;}.cls-3{fill:#fff;}.cls-4{fill:#231f20;}.cls-5{fill:#f58220;}.cls-6{isolation:isolate;}.cls-7{fill:#33a9e0;}</style><radialGradient id="radial-gradient" cx="280.77" cy="337.17" r="295.03" gradientTransform="translate(0 -82)" gradientUnits="userSpaceOnUse"><stop offset="0" stop-color="#8ed8f8"/><stop offset="1" stop-color="#0095da"/></radialGradient></defs><title>logo33</title><g id="Logo"><path class="cls-1" d="M289.5,146c120.6,0,218.4,97.8,218.4,218.4S410.1,582.8,289.5,582.8a217,217,0,0,1-96.2-22.3l74.4-72.3.1-58.1c-.4-16.6-9.5-29.1-28.6-30.5l-70.9.7-72,66.2A216.82,216.82,0,0,1,71,364.4C71.1,243.8,168.9,146,289.5,146Z" transform="translate(0 -74.1)"/><path id="SVGID" class="cls-2" d="M468.7,489A220.44,220.44,0,0,1,192,560.4l74.7-72.7.1-58.3c-.3-14.6-7.4-26-22-29.6a224.1,224.1,0,0,1,43.7-4.3A220.23,220.23,0,0,1,468.7,489Z" transform="translate(0 -74.1)"/><path d="M328.5,196.4c16.5,0,29.9,13.1,29.9,29.3S345,255,328.5,255s-29.9-13.1-29.9-29.3,13.4-29.3,29.9-29.3Z" transform="translate(0 -74.1)"/><path d="M176.1,331.8a90.8,90.8,0,0,0-71.7,34.7,72.94,72.94,0,0,1,45.4-15.6c31.9,0,59,20.1,68.8,48.2l20.2-.2c16.6,1.2,25.6,10.9,27.9,24.3v-2.4c0-49.2-40.6-89-90.6-89Z" transform="translate(0 -74.1)"/><path d="M257.9,341.7c-29.5-30.6-68.5-25.4-71.7-74-.7-10.8,1.9-19.6,6.4-26.7,10.8-16.7,32.9-23.3,49.4-22.1,35.9,2.6,19.1,14.9,4.7,22.4-14.1,7.3-32.6,22-31.1,39.7,1.8,21.4,29.7,25.7,42.3,60.7Z" transform="translate(0 -74.1)"/><path d="M294.8,299c-.2-11.7,4-25.4,13.1-40.7-36.1,11.4-41.7,44.8-29.4,64h79.8v13.2a91.18,91.18,0,0,0-45.9,31,72.94,72.94,0,0,1,45.4-15.6c40.2,0,72.8,32,72.8,71.5,0,27.9-16.3,52.1-40.1,63.9-80.4,21.4-102.6-158.7-178.8-158.7,82.6,34.9,72.9,182.2,172.5,182.2,50,0,90.6-39.8,90.6-89,0-48.1-38.8-87.2-87.3-88.9v-9.6h33.4V299H294.8Z" transform="translate(0 -74.1)"/><path class="cls-3" d="M292.1,84.8C137,84.8,11.3,210.5,11.3,365.6S137,646.4,292.1,646.4,572.9,520.7,572.9,365.6,447.2,84.8,292.1,84.8Zm-2.6,497.1c-119.8,0-216.8-97.1-216.8-216.8s97.1-216.8,216.8-216.8,216.8,97.1,216.8,216.8S409.3,581.9,289.5,581.9Z" transform="translate(0 -74.1)"/><path class="cls-4" d="M288.8,74.1c159.5,0,288.8,129.3,288.8,288.8S448.3,651.7,288.8,651.7,0,522.4,0,362.9,129.3,74.1,288.8,74.1Zm0,49.3c-132.2,0-239.5,107.2-239.5,239.5S156.6,602.4,288.8,602.4,528.3,495.1,528.3,362.9,421.1,123.4,288.8,123.4Z" transform="translate(0 -74.1)"/><path class="cls-5" d="M268.7,430l-.1,62.1L146,612.1c-12.3,12-18.7,8.7-31,0a310.82,310.82,0,0,1-73.1-73c-8.1-11.3-7-21,3-31.4L163.2,398.1l75.2-.8C258.7,398.8,268.3,412.2,268.7,430Z" transform="translate(0 -74.1)"/><path class="cls-3" d="M191.4,500.9c10.6,14.2,25.6,1,17.6-11.8-2.6-4.2-5.6-8.4-8.3-12.6,3-2.6,6.1-5.1,9.1-7.7,9.4-8,1-21.8-9.8-17-3.6,2.1-7.7,6.4-10.7,9.5-16.1-12.5-32.6-9.2-42.2-.3-16.2,15.1-2.9,35.6,3.8,51.5,8.7,20.9-8.1,22.9-17.2,8.8-3-4.6-5.5-10-8.3-14.3-10.7-14.3-26.1-.9-17.4,12.1l8.1,12.3c-3,2.6-6,5.2-9.1,7.7-9.4,8-1,21.8,9.8,17,3.6-2.1,7.7-6.4,10.7-9.5,14.2,15.1,29.2,9.2,38.7.3,16.2-15.1,6.3-35.6-.3-51.5-8.7-20.9,8.1-22.9,17.2-8.8C186.1,491.2,188.7,496.6,191.4,500.9Z" transform="translate(0 -74.1)"/><path d="M238.3,413a16.1,16.1,0,1,1-16.1,16.1A16.09,16.09,0,0,1,238.3,413Z" transform="translate(0 -74.1)"/></g><g id="Text"><g class="cls-6"><path d="M614.9,429.1V290.4h78.6c27.7,0,40.6,17.9,40.6,35.4,0,17.3-10.6,28.9-23.7,31.8,14.8,2.3,26.4,16.4,26.4,33.9,0,20.2-13.5,37.6-40.8,37.6Zm82.7-96.7c0-6.7-5-10.8-12.3-10.8H650.6v21.6h34.7C692.7,343.2,697.6,339.2,697.6,332.4Zm2.7,53.6c0-6.9-5-11.6-13.7-11.6h-36v23.5h36C695.1,397.9,700.3,393.5,700.3,386Z" transform="translate(0 -74.1)"/><path d="M756.3,429.1V290.4h35.8V429.1Z" transform="translate(0 -74.1)"/><path d="M809.9,359.8c0-42.8,32.4-71.7,75.1-71.7,33.5,0,51.6,18.9,60.5,37l-30.8,14.8c-4.6-11-16.4-20.2-29.7-20.2-22.7,0-38.7,17.3-38.7,40.1s16,40.1,38.7,40.1c13.3,0,25.2-9.2,29.7-20.2l30.8,14.6c-8.9,17.7-27,37.2-60.5,37.2C842.4,431.6,809.9,402.5,809.9,359.8Z" transform="translate(0 -74.1)"/><path d="M993.2,429.1V373.2l-52.6-82.8h40.3l30.2,51.2,29.7-51.2h40.6L1029,373.2v55.9Z" transform="translate(0 -74.1)"/><path d="M1076.1,359.8c0-42.8,32.4-71.7,75.1-71.7,33.5,0,51.6,18.9,60.5,37l-30.8,14.8c-4.6-11-16.4-20.2-29.7-20.2-22.7,0-38.7,17.3-38.7,40.1s16,40.1,38.7,40.1c13.3,0,25.2-9.2,29.7-20.2l30.8,14.6c-8.9,17.7-27,37.2-60.5,37.2C1108.6,431.6,1076.1,402.5,1076.1,359.8Z" transform="translate(0 -74.1)"/><path d="M1226.5,429.1V290.4h35.8V397.9H1318v31.2Z" transform="translate(0 -74.1)"/><path d="M1336.3,429.1V290.4H1438v31.2h-65.9v21.6h64.5v31.2h-64.5v23.5H1438v31.2Z" transform="translate(0 -74.1)"/></g><g class="cls-6"><path class="cls-7" d="M1472.8,429.1V290.4h78.6c27.7,0,40.6,17.9,40.6,35.4,0,17.3-10.6,28.9-23.7,31.8,14.8,2.3,26.4,16.4,26.4,33.9,0,20.2-13.5,37.6-40.8,37.6Zm82.7-96.7c0-6.7-5-10.8-12.3-10.8h-34.7v21.6h34.7C1550.6,343.2,1555.5,339.2,1555.5,332.4Zm2.7,53.6c0-6.9-5-11.6-13.7-11.6h-36v23.5h36C1553,397.9,1558.2,393.5,1558.2,386Z" transform="translate(0 -74.1)"/><path class="cls-7" d="M1613.6,429.1V290.4h35.8V397.9h55.7v31.2Z" transform="translate(0 -74.1)"/><path class="cls-7" d="M1718.8,372.9V290.3h36.4v81.3c0,16.4,10,28.3,29.3,28.3,19.1,0,29.1-11.9,29.1-28.3V290.3h36.2v82.4c0,34.5-20.8,58.9-65.3,58.9S1718.8,407,1718.8,372.9Z" transform="translate(0 -74.1)"/><path class="cls-7" d="M1874.8,429.1V290.4h101.7v31.2h-65.9v21.6h64.5v31.2h-64.5v23.5h65.9v31.2Z" transform="translate(0 -74.1)"/><path class="cls-7" d="M1997.3,429.1V290.4h78.6c27.7,0,40.6,17.9,40.6,35.4,0,17.3-10.6,28.9-23.7,31.8,14.8,2.3,26.4,16.4,26.4,33.9,0,20.2-13.5,37.6-40.8,37.6Zm82.7-96.7c0-6.7-5-10.8-12.3-10.8H2033v21.6h34.7C2075,343.2,2080,339.2,2080,332.4Zm2.7,53.6c0-6.9-5-11.6-13.7-11.6h-36v23.5h36C2077.5,397.9,2082.7,393.5,2082.7,386Z" transform="translate(0 -74.1)"/><path class="cls-7" d="M2131.6,359.8c0-42.2,31.8-71.7,74.2-71.7s74,29.5,74,71.7-31.6,71.7-74,71.7S2131.6,402.1,2131.6,359.8Zm111.9,0c0-22.7-14.8-40.1-37.6-40.1s-37.8,17.5-37.8,40.1,15,40.1,37.8,40.1S2243.5,382.3,2243.5,359.8Z" transform="translate(0 -74.1)"/><path class="cls-7" d="M2290.9,359.8c0-42.2,31.8-71.7,74.2-71.7s74,29.5,74,71.7-31.6,71.7-74,71.7S2290.9,402.1,2290.9,359.8Zm111.9,0c0-22.7-14.8-40.1-37.6-40.1s-37.8,17.5-37.8,40.1,15,40.1,37.8,40.1S2402.8,382.3,2402.8,359.8Z" transform="translate(0 -74.1)"/><path class="cls-7" d="M2538.8,429.1l-36.4-52.2-9.4,11.6v40.6h-35.8V290.4H2493v57l42.6-57h44.1l-53.9,64.9,56.8,73.8Z" transform="translate(0 -74.1)"/></g><g class="cls-6"><path class="cls-4" d="M2593.7,411.8c0-10.4,9.2-19.3,19.8-19.3a19.4,19.4,0,1,1,0,38.8A19.92,19.92,0,0,1,2593.7,411.8Z" transform="translate(0 -74.1)"/><path class="cls-4" d="M2647,359.8c0-42.8,32.4-71.7,75.1-71.7,33.5,0,51.6,18.9,60.5,37l-30.8,14.8c-4.6-11-16.4-20.2-29.7-20.2-22.7,0-38.7,17.3-38.7,40.1s16,40.1,38.7,40.1c13.3,0,25.2-9.2,29.7-20.2l30.8,14.6c-8.9,17.7-27,37.2-60.5,37.2C2679.4,431.6,2647,402.5,2647,359.8Z" transform="translate(0 -74.1)"/><path class="cls-4" d="M2790.9,359.8c0-42.2,31.8-71.7,74.2-71.7s74,29.5,74,71.7-31.6,71.7-74,71.7S2790.9,402.1,2790.9,359.8Zm111.8,0c0-22.7-14.8-40.1-37.6-40.1s-37.8,17.5-37.8,40.1,15,40.1,37.8,40.1S2902.7,382.3,2902.7,359.8Z" transform="translate(0 -74.1)"/><path class="cls-4" d="M3078.9,429.1V337.4L3044,429.1h-15.8l-35.1-91.7v91.7h-35.8V290.4H3007l29.1,76.5,28.9-76.5h49.7V429.1Z" transform="translate(0 -74.1)"/></g></g></svg>